<svg xmlns="http://www.w3.org/2000/svg" version="1.1" xmlns:xlink="http://www.w3.org/1999/xlink" xmlns:svgjs="http://svgjs.dev/svgjs" width="2000" height="515" viewBox="0 0 2000 515"><g transform="matrix(1,0,0,1,-1.2121212121212466,0.32889030205910785)"><svg viewBox="0 0 396 102" data-background-color="#051726" preserveAspectRatio="xMidYMid meet" height="515" width="2000" xmlns="http://www.w3.org/2000/svg" xmlns:xlink="http://www.w3.org/1999/xlink"><g id="tight-bounds" transform="matrix(1,0,0,1,0.2400000000000091,-0.06513943846607617)"><svg viewBox="0 0 395.52 102.13027887693214" height="102.13027887693214" width="395.52"><g><svg viewBox="0 0 505.6526199636638 130.56847464537918" height="102.13027887693214" width="395.52"><g transform="matrix(1,0,0,1,110.13261996366381,18.045281228124047)"><svg viewBox="0 0 395.52 94.47791218913109" height="94.47791218913109" width="395.52"><g><svg viewBox="0 0 395.52 94.47791218913109" height="94.47791218913109" width="395.52"><g><svg viewBox="0 0 395.52 94.47791218913109" height="94.47791218913109" width="395.52"><g transform="matrix(1,0,0,1,0,0)"><svg width="395.52" viewBox="4.1 -37.5 159.61 37.99" height="94.47791218913109" data-palette-color="#ffffff"><g class="undefined-text-0" data-fill-palette-color="primary" id="text-0"><path d="M24.88 0L17.16-14.38 8.81-14.38 8.81 0 4.1 0 4.1-35.55 15.87-35.55Q21.88-35.55 25.11-32.81 28.34-30.08 28.34-24.85L28.34-24.85Q28.34-21.53 26.55-19.07 24.76-16.6 21.56-15.38L21.56-15.38 29.91-0.29 29.91 0 24.88 0ZM8.81-31.69L8.81-18.21 16.02-18.21Q19.51-18.21 21.57-20.02 23.63-21.83 23.63-24.85L23.63-24.85Q23.63-28.15 21.67-29.91 19.7-31.67 15.99-31.69L15.99-31.69 8.81-31.69ZM57.03-3.69L57.03 0 33.74 0 33.74-3.25 46.04-16.92Q48.78-20.02 49.81-21.96 50.85-23.9 50.85-25.98L50.85-25.98Q50.85-28.76 49.17-30.54 47.48-32.32 44.68-32.32L44.68-32.32Q41.31-32.32 39.44-30.41 37.57-28.49 37.57-25.07L37.57-25.07 33.05-25.07Q33.05-29.98 36.22-33.01 39.38-36.04 44.68-36.04L44.68-36.04Q49.63-36.04 52.51-33.44 55.39-30.83 55.39-26.51L55.39-26.51Q55.39-21.26 48.7-14.01L48.7-14.01 39.18-3.69 57.03-3.69Z" fill="#ffffff" data-fill-palette-color="primary"></path><path d="M85.72-35.55L85.72-31.69 74.29-31.69 74.29 0 69.63 0 69.63-31.69 58.23-31.69 58.23-35.55 85.72-35.55ZM101.24 0.49L101.24 0.49Q95.87 0.49 92.5-3.04 89.13-6.57 89.13-12.48L89.13-12.48 89.13-13.31Q89.13-17.24 90.63-20.32 92.13-23.41 94.83-25.16 97.53-26.9 100.68-26.9L100.68-26.9Q105.83-26.9 108.69-23.51 111.54-20.12 111.54-13.79L111.54-13.79 111.54-11.91 93.65-11.91Q93.75-8.01 95.93-5.6 98.12-3.2 101.49-3.2L101.49-3.2Q103.88-3.2 105.54-4.17 107.2-5.15 108.44-6.76L108.44-6.76 111.2-4.61Q107.88 0.49 101.24 0.49ZM100.68-23.19L100.68-23.19Q97.95-23.19 96.09-21.2 94.23-19.21 93.8-15.63L93.8-15.63 107.03-15.63 107.03-15.97Q106.83-19.41 105.17-21.3 103.51-23.19 100.68-23.19ZM127.36-3.2L127.36-3.2Q129.78-3.2 131.59-4.66 133.39-6.13 133.59-8.33L133.59-8.33 137.86-8.33Q137.74-6.05 136.3-4 134.86-1.95 132.45-0.73 130.05 0.49 127.36 0.49L127.36 0.49Q121.97 0.49 118.78-3.11 115.59-6.71 115.59-12.96L115.59-12.96 115.59-13.72Q115.59-17.58 117.01-20.58 118.43-23.58 121.08-25.24 123.72-26.9 127.34-26.9L127.34-26.9Q131.78-26.9 134.72-24.24 137.66-21.58 137.86-17.33L137.86-17.33 133.59-17.33Q133.39-19.9 131.65-21.55 129.9-23.19 127.34-23.19L127.34-23.19Q123.9-23.19 122-20.72 120.11-18.24 120.11-13.55L120.11-13.55 120.11-12.7Q120.11-8.13 121.99-5.66 123.87-3.2 127.36-3.2ZM147.45-37.5L147.45-23.22Q150.46-26.9 155.26-26.9L155.26-26.9Q163.64-26.9 163.71-17.46L163.71-17.46 163.71 0 159.2 0 159.2-17.48Q159.17-20.34 157.89-21.7 156.61-23.07 153.9-23.07L153.9-23.07Q151.7-23.07 150.04-21.9 148.38-20.73 147.45-18.82L147.45-18.82 147.45 0 142.94 0 142.94-37.5 147.45-37.5Z" fill="#1ee783" data-fill-palette-color="secondary"></path></g></svg></g></svg></g></svg></g></svg></g><g><svg viewBox="0 0 87.8286523657025 130.56847464537918" height="130.56847464537918" width="87.8286523657025"><g><svg xmlns="http://www.w3.org/2000/svg" xmlns:xlink="http://www.w3.org/1999/xlink" version="1.1" x="0" y="0" viewBox="22.698 9.333 55.074999999999996 81.876" enable-background="new 0 0 100 100" xml:space="preserve" height="130.56847464537918" width="87.8286523657025" class="icon-icon-0" data-fill-palette-color="accent" id="icon-0"><rect x="22.698" y="49.426" width="15.94" height="15.94" fill="#1ee783" data-fill-palette-color="accent"></rect><rect x="42.174" y="55.947" width="15.941" height="15.939" fill="#1ee783" data-fill-palette-color="accent"></rect><rect x="61.832" y="49.426" width="15.941" height="15.94" fill="#1ee783" data-fill-palette-color="accent"></rect><rect x="22.698" y="75.27" width="15.94" height="15.939" fill="#1ee783" data-fill-palette-color="accent"></rect><rect x="42.174" y="75.27" width="15.941" height="15.939" fill="#1ee783" data-fill-palette-color="accent"></rect><rect x="61.832" y="68.266" width="15.941" height="15.939" fill="#1ee783" data-fill-palette-color="accent"></rect><rect x="61.832" y="23.824" width="15.941" height="15.941" fill="#1ee783" data-fill-palette-color="accent"></rect><rect x="42.589" y="36.867" width="15.94" height="15.941" fill="#1ee783" data-fill-palette-color="accent"></rect><rect x="22.698" y="9.333" width="15.94" height="15.94" fill="#1ee783" data-fill-palette-color="accent"></rect></svg></g></svg></g></svg></g><defs></defs></svg><rect width="395.52" height="102.13027887693214" fill="none" stroke="none" visibility="hidden"></rect></g></svg></g></svg>